PathFileType	4	(X/Y/Z)	OpenSim_Sub03_CSBaseline_Accel.trc
DataRate	CameraRate	NumFrames	NumMarkers	Units	OrigDataRate	OrigDataStartFrame	OrigNumFrames
100	100	14	8	m	100	1	9288
Frame#	Time	torso_imu_offset_imu	pelvis_imu_offset_imu	tibia_r_imu_offset_imu	femur_r_imu_offset_imu	tibia_l_imu_offset_imu	femur_l_imu_offset_imu	toes_r_imu_offset_imu	toes_l_imu_offset_imu
				X1	Y1	Z1	X2	Y2	Z2	X3	Y3	Z3	X4	Y4	Z4	X5	Y5	Z5	X6	Y6	Z6	X7	Y7	Z7	X8		Y8	Z8	

1	0	9.49820929	0.51937815	5.20739908	9.68675445	-0.50401774	2.11114644	9.84701241	1.27905739	0.82505960	9.75607069	-0.37624006	1.10050556	9.76880157	-0.29788431	0.55692467	9.73553482	0.29593707	-0.88173660	5.98789803	-1.97555223	7.74541716	5.54581262	0.98246767	10.74154686
2	0.01000000	9.49408259	0.57257638	5.22398286	9.75407021	-0.42095906	2.15094631	9.85768209	1.24232255	0.85141687	9.80109295	-0.28685714	1.15515000	9.80363044	-0.32317667	0.59135760	9.75360640	0.36243035	-0.87366773	5.96659422	-1.93881634	7.76168335	5.50423768	0.98081044	10.80268958
3	0.02000000	9.49806321	0.59119955	5.22169791	9.79639235	-0.40157746	2.15401357	9.83423855	1.22400890	0.87206112	9.77401449	-0.23981216	1.16823225	9.84225829	-0.35533776	0.58794118	9.77448309	0.36124081	-0.92192423	6.00280119	-1.94146395	7.76299689	5.50325328	1.01338282	10.81616881
4	0.03000000	9.53191563	0.59829462	5.23283162	9.76669483	-0.40568879	2.15039046	9.82520418	1.19826673	0.84278481	9.74222757	-0.17631600	1.16836528	9.86245408	-0.34603698	0.53807164	9.81153019	0.33990673	-0.83916619	5.98497028	-1.94619687	7.76766968	5.49146986	1.00179320	10.81100785
5	0.04000000	9.56736554	0.63706918	5.24464266	9.75742155	-0.43071165	2.15589972	9.80944477	1.16952174	0.85828915	9.77600119	-0.07926330	1.17130415	9.87880347	-0.40250471	0.56620533	9.83011483	0.30040078	-0.74565401	5.95883342	-1.97081693	7.76110057	5.50922177	0.97577746	10.80588265
6	0.05000000	9.55251455	0.64648038	5.27515213	9.71707071	-0.41141099	2.14192416	9.84474125	1.18167964	0.83918790	9.78438562	-0.03597722	1.21730789	9.79225964	-0.59740927	0.53361483	9.85353695	0.23798586	-0.78538079	5.97003472	-1.98091319	7.74038811	5.54315356	0.99595572	10.83158112
7	0.06000000	9.54420410	0.62771957	5.30247447	9.65326311	-0.39931633	2.16935953	9.81396823	1.23770803	0.81295976	9.76556541	-0.03954050	1.29022096	9.80483225	-0.74217511	0.51012482	9.81901265	0.17826117	-0.76423775	5.98926969	-1.95820873	7.76363300	5.60436862	0.93301239	10.76103806
8	0.07000000	9.54696580	0.68902434	5.29329339	9.65550189	-0.38599123	2.17756577	9.78062364	1.20438716	0.90233649	9.79024461	-0.10251648	1.28371577	9.79238286	-0.75949629	0.50460723	9.74732291	0.16366769	-0.80147145	5.98232424	-1.94767000	7.75950256	5.60212216	0.92175605	10.75319345
9	0.08000000	9.53817388	0.70291085	5.30271344	9.65771246	-0.35905760	2.15048108	9.80535842	1.12265339	0.92739283	9.79220903	-0.16192355	1.25124818	9.73897391	-0.70084298	0.56611391	9.71604165	0.15440672	-0.88879660	5.94681157	-1.96427592	7.75859326	5.59436333	0.97153439	10.74815185
10	0.09000000	9.50090845	0.67575028	5.28759457	9.66233518	-0.35877378	2.24465282	9.81354678	1.06016917	0.89166330	9.81626978	-0.25107161	1.19500762	9.75828499	-0.59646821	0.59215507	9.72798247	0.15889198	-0.91804017	5.98897415	-1.92661497	7.77653074	5.59877968	0.96100074	10.73385389
11	0.10000000	9.46278076	0.66934279	5.26433005	9.65400506	-0.37266666	2.20763147	9.80846465	1.08828799	0.95570169	9.81337404	-0.27503099	1.13278632	9.78822401	-0.54010535	0.57790912	9.75851838	0.11892274	-0.83832838	5.98284308	-1.94528736	7.76389419	5.56494878	0.99732280	10.77856200
12	0.11000000	9.46228497	0.71007620	5.31484084	9.64175890	-0.45273235	2.22419548	9.81994199	0.99274823	0.91742632	9.72852907	-0.29169150	1.08204906	9.80563182	-0.49185360	0.60586005	9.80705089	0.06742617	-0.83696012	5.97455972	-1.96586460	7.77352979	5.54281124	1.02870480	10.77030276
13	0.12000000	9.47591546	0.70064114	5.32468382	9.67545200	-0.51831260	2.24959242	9.79614935	0.95604717	0.91594333	9.71788734	-0.34672546	1.11730187	9.83732474	-0.39995571	0.59909164	9.79681339	0.09180077	-0.79057629	6.00890946	-1.95949073	7.74848607	5.51090508	1.00423394	10.77347495
14	0.13000000	9.46799902	0.69631825	5.32880232	9.62030313	-0.59275911	2.26576756	9.82262416	0.92398314	0.88393839	9.76113970	-0.35028718	1.13315943	9.84733015	-0.43461471	0.57147030	9.85024358	0.10195833	-0.75005068	5.96032107	-1.96848626	7.74657602	5.53158655	1.00960878	10.79831419
